<?xml version="1.0" encoding="utf-8"?>
<!-- Generator: Adobe Illustrator 23.0.1, SVG Export Plug-In . SVG Version: 6.00 Build 0)  -->
<svg version="1.1" id="Layer_1" xmlns="http://www.w3.org/2000/svg" xmlns:xlink="http://www.w3.org/1999/xlink" x="0px" y="0px"
	 viewBox="0 0 576 576" style="enable-background:new 0 0 576 576;" xml:space="preserve">
<style type="text/css">
	.st0{fill:#FFFFFF;}
	.st1{fill:#999999;}
</style>
<title>grayAsset 2</title>
<g>
	<g id="Layer_1-2">
		<path class="st0" d="M266.1,388.4L355.4,0H220.5c-32.9,0-59.6,26.7-59.6,59.6v456.7c0,32.9,26.7,59.6,59.6,59.7h134.8
			c33,0,59.7-26.7,59.8-59.7V59.6C415,26.7,388.3,0,355.4,0"/>
		<path class="st1" d="M321.9,105.6l0.1,1.9c4.1,2.4,6.2,4.3,10.3,7c11,6.9,24.6,19.2,22.8,61.6c3.1,9.2,4.5,27.4,7.3,33.2
			c5.7,11.4,9.6,18.8,11.2,29.5c0,0,1.6,16.7,3.8,17.9c11.4,2.6,8.1,3.7,9.8,5.6c1.8,2.3,8.3,2.2,8.3,8.3c2.2,2.9,3.9,6.1,5.2,9.5
			V59.6c0-25.1-20.4-45.5-45.5-45.6h-43.5c7,2.5,10.9,5.4,13.3,10.1c5.6,0.5,12.3,13.1,1.9,31.7c4.6,3.1,1,7.7-2.3,13
			c-1,1.7-2,4.8-5.1,4.5c-4,8.3-8.7,16.4-12.4,16.9c-1.1,1.3-1.9,4.9-0.2,6.6C312.3,99.3,318.8,102.6,321.9,105.6"/>
		<path class="st1" d="M400.9,310.1c-8.3,20.9-32,31.1-52.8,22.8c-20.9-8.3-31.1-32-22.8-52.8c4.9-12.2,15.4-21.4,28.2-24.5
			c-4.7-11.7-14.6-30.7-17.5-37c-2.8-6.2-9.5-44.8-10.9-52.5c-0.3-1.7-17.5,10-17.6,10.7c-1,1-12.9,32.1-13.4,33.7
			c-0.2,1.7-0.3,3.5-0.3,5.2c0,0,5.9,0.7,9.2,10.9s13.5,47.4,13.5,47.4s-2.8,2.9-2.9,2.7c12.8,43,8.4,61.5,14.1,74.1
			c7.2,17.8,9.2,15.4,15.4,30.4c4.5,10.9,9.4,53.7,11.1,55.5c6.9,8.8,10.6,15.7,10.6,20.7s-5.9,19.7-3.7,28.3c1.3,5,2,16.4,4.3,18.5
			c0,0,2.2,4.2,1.1,6.1c-0.3,0.6-0.9,1.6-0.6,2.4c3.8,13.5,16.2,36.5-3.8,48.5h0.4c22.2-3.4,38.5-22.6,38.3-45V310.1z"/>
		<path class="st1" d="M349.6,507.5c-7.3-6.5-2.4-9.3-2.7-11.9c-4.8-20-20.7-32-12.5-38.6c-2-6.6-6.1-14.9-6-14.9
			c-24.7-14.2-45.7-37.2-49.3-40.6c-4.3-4.7-11.7-9.4-13.1-13.3c-5.9-5.5-35-46.7-41.8-61.9l-11.8-1.7c-5.4-22-23.3-40.4-23.8-62.4
			c-0.2-8.3,3.8-26.1,5.2-29.7c1.5-3.6,8.3-9.5,8.3-9.5v-5.9c-25.8,0.7-18.4-1.9-22.8-11.9c-3.1-6.9-0.9-8.5,0.2-13.3
			c3.4-14.2,14.9-36.1,19.7-46.1c1.4-5,6.4-17.1,6.4-17.1c19.2-39.1,26.4-36.2,49.2-38.4l1.1-1.6c22.9-1,19.1-2.7,22.3-24.7
			c-3.3,1.4-4.3-6.9-4.3-6.9c-1.8-12.5,3.5-10.2,6-10.4c0.5-20.6,2.7-27.1,17.5-32.8h-77c-25.2,0-45.6,20.4-45.6,45.6v456.7
			c0,25.2,20.4,45.6,45.6,45.6c0,0,0,0,0,0h134.8C340,553.6,349.1,537.7,349.6,507.5z"/>
		<path class="st0" d="M246.1,533.2v-82.7h16c9.3,0,15,5,15,16.6v12.3c0,7.5-2.3,11.4-5.5,13.2c3.2,2.2,5.5,5.9,5.5,12.2v12
			c0,11.3-6.1,16.4-15,16.4L246.1,533.2z M257.1,497.3v25.5h4.2c3.8,0,4.8-2,4.8-5.9v-14c0-4.1-1.3-5.6-4.9-5.6L257.1,497.3z
			 M257.1,461v27.3h4.1c3.9,0,4.9-1.4,4.9-5.9v-15.9c0-3.8-1.1-5.6-4.8-5.6L257.1,461z M303,516.4h-10l-1.4,16.8h-11.1l10-82.7h15.8
			l9.5,82.7h-11.5L303,516.4z M298.1,459.8h-0.6c-0.7,10-2.1,27.4-2.5,33l-1.3,14.2h8.6l-1.3-14.2
			C300.6,487.1,299,469.8,298.1,459.8 M213.3,533.2h-9.6v-82.7h15.2l12.3,67.7c-1-16.2-2.4-35.8-2.4-52.5v-15.3h9.6v82.7h-14
			L212.2,467c0.8,15.3,1.1,27.5,1.1,40.2V533.2z"/>
	</g>
</g>
</svg>
