<svg height="16" width="16" viewBox="0 0 16 16" xmlns="http://www.w3.org/2000/svg">
    <g fill-rule="evenodd">
        <path fill="#1877F2" d="M16,8 C16,3.5 12.4,0 8,0 C3.5,0 0,3.5 0,8 C0,11.9 2.9,15.3 6.7,15.9 L6.7,10.3 L4.7,10.3 L4.7,8 L6.7,8 L6.7,6.2 C6.7,4.2 7.9,3.1 9.7,3.1 C10.6,3.1 11.5,3.2 11.5,3.2 L11.5,5.2 L10.5,5.2 C9.5,5.2 9.2,5.8 9.2,6.4 L9.2,8 L11.4,8 L11.1,10.3 L9.2,10.3 L9.2,15.9 C13.0,15.3 16,11.9 16,8"></path>
        <path fill="#FFFFFF" d="M11.1,10.3 L11.4,8 L9.2,8 L9.2,6.4 C9.2,5.8 9.5,5.2 10.5,5.2 L11.5,5.2 L11.5,3.2 C11.5,3.2 10.6,3.1 9.7,3.1 C7.9,3.1 6.7,4.2 6.7,6.2 L6.7,8 L4.7,8 L4.7,10.3 L6.7,10.3 L6.7,15.9 C7.1,15.9 7.5,16 8,16 C8.4,16 8.8,15.9 9.2,15.9 L9.2,10.3 L11.1,10.3"></path>
    </g>
</svg>