<svg xmlns="http://www.w3.org/2000/svg" width="16" height="16" viewBox="0 0 16 16"><g fill="#E53365" fill-rule="evenodd"><path d="M8 0H4.7a5 5 0 0 0-2 .4 3 3 0 0 0-1.4.9c-.5.4-.7.9-.9 1.4a5 5 0 0 0-.4 2v6.5c0 .9.2 1.5.4 2s.4 1 .9 1.4c.4.5.9.7 1.4.9a5 5 0 0 0 2 .4L8 16l3.2-.1a5 5 0 0 0 2-.4 3 3 0 0 0 1.4-.9c.5-.4.7-.9.9-1.4a5 5 0 0 0 .4-2L16 8l-.1-3.3a5 5 0 0 0-.4-2 3 3 0 0 0-.9-1.4 3 3 0 0 0-1.4-.9 5 5 0 0 0-2-.4H8Zm0 1.4h3.2l1.5.3.9.6.6.9.3 1.5v6.5l-.3 1.5-.6.9-.9.6-1.5.3H4.7l-1.5-.3-.9-.6-.6-.9-.3-1.5V4.7l.3-1.5.6-.9.9-.6 1.5-.3H8Z"/><path d="M7.9 10.5a2.6 2.6 0 0 1-2.6-2.6c0-1.4 1.2-2.6 2.6-2.6 1.5 0 2.6 1.2 2.6 2.6 0 1.5-1.1 2.6-2.6 2.6ZM8 4C5.7 4 4 5.7 4 8a4 4 0 0 0 4 4 4 4 0 0 0 4-4 4 4 0 0 0-4-4ZM13 3.7c0 .5-.4.9-.9.9a.9.9 0 0 1-.9-.9c0-.5.4-.9.9-.9s.9.4.9.9"/></g></svg>