<?xml version="1.0" encoding="UTF-8"?>
<svg id="LOGO" xmlns="http://www.w3.org/2000/svg" version="1.1" viewBox="0 0 40 40">
  <!-- Generator: Adobe Illustrator 29.8.2, SVG Export Plug-In . SVG Version: 2.1.1 Build 3)  -->
  <defs>
    <style>
      .st0 {
        fill: #fa4d00;
      }

      .st1 {
        fill: #fff;
      }

      .st2 {
        fill: #c8102e;
      }

      .st3 {
        fill: #1d428a;
      }
    </style>
  </defs>
  <g>
    <path class="st3" d="M5.3,30.3c0,2.7-.9,3.4-2.6,3.4s-1.2,0-1.7-.2v-2.5h.3c.9,0,1.1-.3,1.1-1.1V11.7h3v18.6Z"/>
    <path class="st3" d="M5.9,8.7c0,1-.8,1.9-1.9,1.9s-1.9-.8-1.9-1.9.8-1.9,1.9-1.9,1.9.8,1.9,1.9"/>
    <path class="st3" d="M14.6,27.2c0,1-.9,1.9-1.9,1.9s-1.9-.8-1.9-1.9.9-1.9,1.9-1.9,1.9.8,1.9,1.9"/>
    <path class="st3" d="M6.6,29.1V11.7h2.4c0,.3.2.8.3,1.4.3-.9.9-1.5,1.8-1.5s.4,0,.6.1v3.2h-.9c-.6,0-1,0-1.2.5v13.8h-3Z"/>
  </g>
  <g>
    <path class="st1" d="M24.3,6.3h-5.5c-1.3,0-2.4,1.1-2.4,2.4v18.5c0,1.3,1.1,2.4,2.4,2.4h5.5c1.3,0,2.4-1.1,2.4-2.4V8.8c0-1.3-1.1-2.4-2.4-2.4"/>
    <path class="st2" d="M22.9,10.6h0c.2.2.3.3.4.4.4.3,1,.8.9,2.5.1.4.2,1.1.3,1.3.2.5.4.8.5,1.2,0,0,0,.7.2.7.5.1.3.1.4.2,0,0,.3,0,.3.3,0,.1.2.3.2.4v-8.9c0-1-.8-1.8-1.8-1.8h-1.8c.3.1.4.2.5.4.2,0,.5.5,0,1.3.2.1,0,.3,0,.5,0,0,0,.2-.2.2-.2.3-.4.7-.5.7,0,0,0,.2,0,.3.2,0,.5.2.6.4"/>
    <path class="st2" d="M26.1,18.9c-.2.6-.8,1-1.5,1s-1.6-.7-1.6-1.6.5-1.4,1.3-1.6c-.2-.5-.6-1.2-.7-1.5-.1-.3-.4-1.8-.4-2.1,0,0-.7.4-.7.4,0,0-.5,1.3-.5,1.4,0,0,0,.2,0,.2,0,0,.2,0,.4.4.1.4.5,1.9.5,1.9,0,0-.1.1-.1.1.5,1.7.3,2.5.6,3,.3.7.4.6.6,1.2.2.4.4,2.2.4,2.2.3.4.4.6.4.8s-.2.8-.2,1.1c0,.2,0,.7.2.7,0,0,0,.2,0,.2,0,0,0,0,0,0,.2.5.7,1.5-.2,2h0c.9-.1,1.6-.9,1.6-1.8v-8.3Z"/>
    <path class="st3" d="M24,26.9c-.3-.3,0-.4-.1-.5-.2-.8-.8-1.3-.5-1.6,0-.3-.2-.6-.2-.6-1-.6-1.8-1.5-2-1.6-.2-.2-.5-.4-.5-.5-.2-.2-1.4-1.9-1.7-2.5h-.5c-.2-1-.9-1.7-1-2.6,0-.3.2-1.1.2-1.2,0-.1.3-.4.3-.4v-.2c-1,0-.7,0-.9-.5-.1-.3,0-.3,0-.5.1-.6.6-1.5.8-1.9,0-.2.3-.7.3-.7.8-1.6,1.1-1.5,2-1.6h0c.9-.1.8-.2.9-1.1-.1,0-.2-.3-.2-.3,0-.5.1-.4.2-.4,0-.8.1-1.1.7-1.3h-3.1c-1,0-1.8.8-1.8,1.8v18.5c0,1,.8,1.8,1.8,1.8h5.5c-.6-.3-.3-1-.2-2.2"/>
    <path class="st1" d="M19.9,27.9v-3.3h.6c.4,0,.6.2.6.7v.5c0,.3,0,.5-.2.5.1,0,.2.2.2.5v.5c0,.5-.2.7-.6.7h-.6ZM20.3,26.5v1h.2c.2,0,.2,0,.2-.2v-.6c0-.2,0-.2-.2-.2h-.2ZM20.3,25v1.1h.2c.2,0,.2,0,.2-.2v-.6c0-.2,0-.2-.2-.2h-.2ZM22.2,27.2h-.4v.7h-.5l.4-3.3h.6l.4,3.3h-.5v-.7ZM22,24.9h0c0,.4,0,1.1-.1,1.3v.6c0,0,.3,0,.3,0v-.6c0-.2-.1-.9-.2-1.3M18.5,27.9h-.4v-3.3h.6l.5,2.7c0-.7,0-1.4,0-2.1v-.6h.4v3.3h-.6l-.5-2.7c0,.6,0,1.1,0,1.6v1.1Z"/>
  </g>
  <g>
    <path class="st1" d="M36.6,6.4h-5.4c-1.3,0-2.4,1.1-2.4,2.4v18.4c0,1.3,1.1,2.4,2.4,2.4h5.4c1.3,0,2.4-1.1,2.4-2.4V8.8c0-1.3-1.1-2.4-2.4-2.4"/>
    <path class="st0" d="M38.1,7.7c0,.2.1.4.1.6,0,0,.1.2,0,.4,0,.2-.3.5-.3.8,0,.2-.1.5-.2.7,0,.2-.2.3-.2.4,0,.1,0,.4-.4.9-.3.4-.7.9-.7.9,0,0,0,.2-.2.3-.2.3-.4.5-.4.7,0,.2-.2.4-.3.7-.1.2-.2.3-.2.5,0,.4-.2,1-.3,1.3-.3.7-.4,1.4-.3,1.9.1.6.6,1.1.3,2.1-.2.9-.4,1.2-.4,1.2,0,0,.4.4.6.8.2.6.3,2.1.3,2.1,0,0,0,0,.1,0,0,0,.1.5.3.7.1.2.6.5.7.7,0,.2-.1.5-.1.8,0,0,0,.1,0,.2,0,.4.3.8.3,1,0,.2.4.4.5.7,0,.3.1.8-.2.9.8-.2,1.3-.9,1.3-1.8V8.8c0-.4-.1-.8-.4-1.1M36.8,29.1c0,0-.2,0-.2,0h-5.5c-1,0-1.8-.8-1.8-1.8V8.8c0-1,.8-1.8,1.8-1.8h5.5c.1,0,.2,0,.3,0-.6,0-1.2.4-1.3,1.1-.1.7.4,1.4,1.1,1.5,0,0,.2,0,.3,0,0,0,0,0,.1,0,0,0,.1.3,0,.4,0,.1-.3.4-.6.7-.3.3-.4.4-.7.7-.1.2-.2.4-.2.4,0,0-.3.1-.4.4-.2.2-.4.7-.4.7,0,0-.2.1-.3.2-.1,0-.2.2-.3.4,0-.2,0-.3.2-.3,0,0,.2-.4.2-.7.2,0,.3-.3.3-.5,0-.3-.2-.5-.5-.5-.1,0-.2,0-.3.1-.2,0-.5-.1-.7,0,0,0-.2,0-.2.1,0,0-.2,0-.3.2-.1.2,0,.3,0,.4,0,0-.2.2-.1.6,0,.2,0,.3,0,.4,0,0,0,.1.1.1,0,0,0,0,.1,0,0,0,.1,0,.1.1,0,0,0,0,0,0,0,0,0,0,0,.1,0,0,0,0,0,0h-.5c-.3,0-.4.1-.4.1,0,0-.3,0-.5.2-.2.1-.4.4-.5.7,0,.1,0,.2-.1.3,0,0-.2.2-.3.3,0-.3-.2-.6-.2-.9,0,0,0,0,0,0,0,0,0-.2,0-.2,0-.1.1-.3.1-.4,0-.1,0-.2,0-.3,0,0,0-.1,0-.2,0,0,0,0,0-.2,0,0,0,0-.1,0,0,0-.1.1-.1.2,0,0,0,.1,0,.2,0,0,0,0-.1,0,0,0,0,0,0-.2,0,0-.1-.4-.3-.6,0,0,0,0-.1-.1,0,0,0,0,0,0,0,.1,0,.2.1.3,0,0,0-.1-.2-.2,0,0,0,0-.1-.1,0,0,0,0,0,0,0,0,0,0,0,0,0,.1.2.2.2.3,0,0,0,0-.1,0,0,0,0,0,0,0,0,0,0,0,0,0,0,0,.1.1.2.2,0,0,0,.1.1.2,0,0,0,0,0,0,0,0,.1.1.2.2,0,.2,0,.4,0,.7,0,.2,0,.9,0,1.2,0,.5,0,.7,0,1.2,0,.3.4.3.6.1.4-.3.8-.9.9-1,0,0,.1-.3.2-.2.1.1.3.8.2,1.4,0,.1,0,.3,0,.4,0,0,0,0,0,.1,0,.4-.3.5-.4,1,0,.5,0,.8,0,1.2.1.4.3.9.5,1.2.2.3.2.6.2.6h.2s.3,1,.8,1.7c1.5,2.1,2,3.1,2.1,3.3.1.2,0,.2,0,.3,0,.1,0,.2.3.3.3.2.5.7.6,1,0,.3.3.7.6.8"/>
    <path class="st1" d="M30.7,27.3l-.2.6h-.3l-.3-.8h.3l.2.6.2-.6h.3l.2.6.2-.6h.3l-.3.8h-.3l-.2-.6ZM32.4,27.6v-.6h.3v.8h-.4l-.5-.6v.6h-.3v-.8h.4l.5.6ZM34,27.6c0,.2-.1.2-.4.2h-.7v-.8h.7c.2,0,.4,0,.4.2s0,.2-.1.2c0,0,0,0,0,0s0,0,0,0c.1,0,.2,0,.2.2M33.6,27.3s0,0-.1,0h-.4c0,.1.4.1.4.1,0,0,.1,0,.1,0M33.1,27.5h0c0,.1.5.1.5.1,0,0,0,0,0,0s0,0,0,0h-.5ZM34.9,27.7h-.5v.2h-.4l.5-.8h.3l.5.8h-.3v-.2ZM34.5,27.5h.3v-.3c-.1,0-.3.3-.3.3Z"/>
  </g>
</svg>