<?xml version="1.0" encoding="UTF-8"?>
<svg id="Layer_2" xmlns="http://www.w3.org/2000/svg" xmlns:xlink="http://www.w3.org/1999/xlink" version="1.1" viewBox="0 0 18 40">
  <!-- Generator: Adobe Illustrator 30.0.0, SVG Export Plug-In . SVG Version: 2.1.1 Build 123)  -->
  <defs>
    <style>
      .st0 {
        fill: none;
      }

      .st1 {
        fill: #640c6c;
      }

      .st2 {
        clip-path: url(#clippath-1);
      }

      .st3 {
        fill: #fff;
      }

      .st4 {
        clip-path: url(#clippath);
      }
    </style>
    <clipPath id="clippath">
      <rect class="st0" x=".2" width="17.7" height="40"/>
    </clipPath>
    <clipPath id="clippath-1">
      <rect class="st0" x="3.1" y="31.1" width="7.2" height="5.7"/>
    </clipPath>
  </defs>
  <g class="st4">
    <g>
      <path class="st3" d="M13.6,0H4.3C2,0,.2,1.8.2,4.1v31.7c0,2.3,1.8,4.1,4.1,4.1h9.4c2.3,0,4.2-1.8,4.2-4.1V4.1C17.8,1.8,16,0,13.7,0"/>
      <polygon class="st1" points="9.4 9.1 9.4 9.1 8.2 8.2 6.9 9.1 5.8 8.2 4.3 9.1 4.3 9.1 5.5 10 3.9 11.1 3.9 11.1 5.2 12.2 6.8 11 8.2 12.2 9.5 10.9 9.5 10.9 8.2 10 9.4 9.1"/>
      <path class="st1" d="M9.4,4.5l7.5,4.8v-5.2c0-1.7-1.5-3.2-3.2-3.2H4.3c-1.7,0-3.2,1.5-3.2,3.2v4.2l1.3-1.3,7-2.5h0Z"/>
      <path class="st1" d="M16.1,17.8v.5c0,.3.2.6.4.9,0,.1.1.2.3.3v-2.8s-.1,0-.1,0c-.4.2-.5.6-.5,1"/>
      <path class="st1" d="M16.8,12.8c-.6-.3-1.2-.3-1.6.2h0c-.3.6-.2,1.1.2,1.5,0,0,0,.1.1.1.1.1.3.2.4.3.3.2.7.3,1,.3v-2.5h0"/>
      <path class="st1" d="M2.6,15.9l-1.5.8v19.2c0,.1,0,.3,0,.5.2,1.2,1,2.1,2.1,2.5h0c.3.1.7.2,1,.2h7.6l1.1-13.1L2.5,15.9h0Z"/>
      <path class="st1" d="M14.5,20.1h0s0,0,0-.1h0v-.3h0c.3-.7,0-1.5-.4-2.1h0c-.4-.5-1-.8-1.6-.7-.6,0-1,.4-1.1.8,0,.1-.1.2-.1.3,0,.2-.1.4-.1.6,0,.3,0,.6.2.9.1.4.4.7.8.9.3.1.5.3.8.3h.2c.5,0,1-.2,1.3-.7"/>
      <path class="st1" d="M11.5,15.4c.3.1.6.2.9.2s.7-.1.9-.4h0s0,0,0,0h0c.3-.4.3-.9,0-1.3,0-.1-.2-.3-.3-.4-.2-.2-.4-.3-.6-.4-.3-.1-.5-.1-.7-.1-.2,0-.4.1-.6.2-.3.1-.5.4-.6.8v.3h0c0,.5.2.9.6,1.1,0,0,.1.1.3.2"/>
      <polygon class="st3" points="17.3 16.8 17 15.2 16.8 15.3 16.8 16.8 17.3 16.8"/>
      <path class="st3" d="M16.8,35.9v-16.3c0-.1-.2-.2-.3-.3-.2-.3-.4-.6-.4-.9,0-.2,0-.4,0-.5,0-.4.1-.8.5-1,0,0,.1,0,.1,0v-1.5c-.3,0-.7,0-1-.3-.1,0-.3-.2-.4-.3h-.1c-.4-.6-.5-1.1-.2-1.6h0s0,0,0,0h0c.4-.5,1-.4,1.6-.2h0v-3.5l-7.5-4.8-7,2.5-1.3,1.3v8.4l1.5-.8,10.5,10-1.1,13.1h1.7c1.7,0,3.2-1.5,3.2-3.2M9.5,10.9l-1.4,1.2-1.4-1.1-1.5,1.2-1.3-1.1h0l1.5-1.1-1.2-.9h0l1.5-.9,1.1.8,1.3-.8,1.3.8h0l-1.2.9,1.3,1h0ZM10.7,14.1h0v-.3c0-.4.3-.7.6-.8.1-.1.4-.2.6-.2s.5,0,.7.1c.3,0,.5.2.6.4.1.1.2.3.3.4.2.4.2.8,0,1.3h0s0,0,0,.1h0c-.3.3-.6.4-.9.4s-.6,0-.9-.2c0,0-.2-.1-.3-.2-.3-.3-.6-.6-.6-1.1M13,20.9c-.3,0-.6-.1-.8-.3-.3-.2-.6-.6-.8-.9s-.2-.6-.2-.9,0-.4.1-.6c0-.1,0-.2.1-.3.2-.4.6-.7,1.1-.8.6-.1,1.2.1,1.6.6h0c.5.6.7,1.5.4,2.2h0v.2h0c0,0,0,.1,0,.1h0c-.4.6-.8.8-1.3.8h-.2"/>
    </g>
  </g>
  <g class="st2">
    <path class="st3" d="M8.4,32.8c0-.3-.1-.5-.4-.5.3-.1.4-.3.4-.6,0-.4-.3-.6-.7-.6h-1.4v2.8l1.3-.3c.5-.1.8-.4.8-.8h0ZM7.2,31.7h.2c.1,0,.2,0,.2.2s0,.2-.2.3h-.2v-.4h0ZM7.4,33.1h-.2v-.5h.2c.1,0,.2,0,.2.2s0,.3-.2.3h0ZM4.2,36.2h1s0,.6,0,.6h-2.1v-.5l.9-.7c.1-.1.2-.2.2-.3s0-.2-.2-.1c-.1,0-.2.1-.2.2h0c0,.1-.8.2-.8.2,0-.6.4-.9,1-1,.7-.1,1.2.1,1.2.6s-.1.6-.6.8l-.4.3h0ZM7.5,35.2l.9,1.6h-1.3l-.6-1.3v1.3h-1v-2.5l1-.2v1.1l.6-1.2,1.3-.3-.8,1.5h0ZM9.5,35.9h.8s0,.9,0,.9h-1.9v-3.1l1.1-.2v2.4ZM9.1,33h.4c0,0,0,.2,0,.2,0,0,.7-.1.7-.1l-.4-2h-1.1l-.5,2.4h.7v-.5h0ZM9.4,31.6v.8c.1,0-.1,0-.1,0v-.8ZM4.2,34.3l-1.1.2v-3.4h1.4l.6,1.6v-1.6h.9v2.8l-1.1.2-.7-1.7v1.8h0Z"/>
  </g>
</svg>