<?xml version="1.0" encoding="UTF-8"?>
<svg id="LOGOS" xmlns="http://www.w3.org/2000/svg" version="1.1" viewBox="0 0 150 150">
  <defs>
    <style>
      .cls-1 {
        fill: #1d428a;
      }

      .cls-1, .cls-2, .cls-3 {
        stroke-width: 0px;
      }

      .cls-2 {
        fill: #c8102e;
      }

      .cls-3 {
        fill: #fff;
      }
    </style>
  </defs>
  <g>
    <path class="cls-3" d="M17.6,53.1H7.1c-2.6,0-4.6,2.1-4.6,4.6v35.6c0,2.6,2.1,4.6,4.6,4.6h10.5c2.6,0,4.7-2.1,4.7-4.6v-35.6c0-2.6-2.1-4.6-4.6-4.6"/>
    <path class="cls-2" d="M15,61.3v.2c.3.2.5.3.8.5.9.5,1.9,1.5,1.8,4.8.2.7.3,2.1.6,2.6.4.9.7,1.5.9,2.3,0,0,.1,1.3.3,1.4.9.2.6.3.8.4.1.2.6.2.6.6.2.2.3.5.4.7v-17.2c0-2-1.6-3.5-3.5-3.5h-3.4c.5.2.9.4,1,.8.4,0,1,1,.1,2.5.4.2,0,.6-.2,1,0,.1-.2.4-.4.4-.3.6-.7,1.3-1,1.3,0,.1-.1.4,0,.5.4.2.9.4,1.2.7"/>
    <path class="cls-2" d="M21.2,77.2c-.5,1.2-1.6,2-2.9,2s-3.2-1.4-3.2-3.2,1-2.7,2.4-3.1c-.4-.9-1.1-2.4-1.4-2.9-.2-.5-.7-3.5-.9-4.1,0-.1-1.4.8-1.4.8,0,0-1,2.5-1,2.6,0,0,0,.4,0,.4,0,0,.5,0,.7.9.3.8,1,3.7,1,3.7,0,0-.2.2-.2.2,1,3.3.6,4.8,1.1,5.8.6,1.4.7,1.2,1.2,2.4.3.8.7,4.2.9,4.3.5.7.8,1.2.8,1.6s-.5,1.5-.3,2.2c.1.4.2,1.3.3,1.4,0,0,.2.3,0,.5,0,0,0,.1,0,.2.3,1,1.3,2.8-.3,3.8h0c1.7-.3,3-1.7,3-3.5v-16.1h0Z"/>
    <path class="cls-1" d="M17.2,92.6c-.6-.5-.2-.7-.2-.9-.4-1.6-1.6-2.5-1-3-.2-.5-.5-1.2-.5-1.2-1.9-1.1-3.6-2.9-3.8-3.2-.3-.4-.9-.7-1-1-.5-.4-2.7-3.6-3.3-4.8h-.9c-.4-1.8-1.8-3.3-1.9-5,0-.6.3-2,.4-2.3.1-.3.6-.7.6-.7v-.5c-2,0-1.4-.1-1.8-.9-.2-.5,0-.7,0-1,.3-1.1,1.2-2.8,1.5-3.6.1-.4.5-1.3.5-1.3,1.5-3,2.1-2.8,3.8-3h0c1.8-.2,1.5-.3,1.7-2.1-.3.1-.3-.5-.3-.5-.1-1,.3-.8.5-.8,0-1.6.2-2.1,1.4-2.6h-6c-2,0-3.5,1.6-3.5,3.5v35.6c0,2,1.6,3.6,3.5,3.6h10.5c-1.2-.6-.5-1.9-.5-4.2Z"/>
    <path class="cls-3" d="M9.1,94.6v-6.4h1.2c.7,0,1.2.4,1.2,1.3v1c0,.6-.2.9-.4,1,.2.2.4.5.4.9v.9c0,.9-.5,1.3-1.2,1.3h-1.2ZM10,91.8v2h.3c.3,0,.4-.2.4-.5v-1.1c0-.3,0-.4-.4-.4h-.3ZM10,89v2.1h.3c.3,0,.4-.1.4-.5v-1.2c0-.3,0-.4-.4-.4h-.3ZM13.6,93.3h-.8v1.3h-1l.8-6.4h1.2l.8,6.4h-.9v-1.3ZM13.2,88.9h0c0,.8-.2,2.1-.2,2.6v1.1c0,0,.6,0,.6,0v-1.1c-.1-.4-.3-1.8-.3-2.6M6.6,94.6h-.8v-6.4h1.2l1,5.3c0-1.3-.2-2.8-.2-4.1v-1.2h.8v6.4h-1.1l-1-5.2c0,1.2,0,2.1,0,3.1v2Z"/>
  </g>
  <g>
    <path class="cls-2" d="M48.7,84.3c0,5.6-5.2,13-12.1,13s-9.8-3.9-9.8-12.8c0-14.7,12.2-29.3,22.3-29.3s6.4,1.6,6.4,6.7-3.8,10.3-7.7,10.3-2.6-1-2.8-1.6c2.5-1.2,5.3-4.4,5.3-9.1s-.4-3.1-2.4-3.1c-6,0-14.7,13.4-14.7,25.6s1.5,8.4,4.9,8.4,7.2-4.7,8.8-11.1c1.4.4,1.8,1.5,1.8,2.8Z"/>
    <path class="cls-2" d="M141.7,57.6c-2.3-.2-4.3.9-5.5,3-.5-1.8-2.1-2.8-3.9-2.9-3.4-.2-6.7,2.5-7.1,7.8-.4,5.9,3,11.4,5.4,11.4s.7-.2.8-.4c-1.7-1.3-4-4.9-3.6-10.6.3-3.7,1.5-5.5,3.3-5.4,1.5.1,2.6,1.5,1.6,4.8.2.1.4.1.7.1,1.8.1,2.6-1.5,3.4-2.7.8-1.2,1.8-1.9,3.1-1.8,2,.1,3,1.6,2.8,4.4-.6,8-8.4,12.1-17.5,15.2-.8.3-1.5.5-2.4.8-.5-3.7-1.5-7.4-1.5-11.9s.5-5.3.9-6.7c-.4-.5-.9-.6-1.5-.6-1.3,0-2.4.6-3.1,2-.3.5-.5,1.1-.6,1.7-6.6,16.4-12,25.3-17.4,25.3s-3.3-1-3.3-5.2,0-2.4.4-3.8c.4,0,.9.2,1.5.2,6.7,0,11.4-6.3,11.4-12s-1.7-5.1-4.2-5.1c-5.1,0-11.6,7.3-13.7,15.9-2,7.2-4.6,10.3-6.2,10.3s-1.2-.5-1.2-1.8c0-2.4,1.5-6.3,3.3-10.1,2.2-5.1,4.8-10.8,4.8-12s-.9-2.2-2.4-2.2-3,.2-6.2.3c.5-1.6,1.2-3,1.7-4.2-.5-.5-1.5-.8-2.1-.8-3.4,0-4.8,4.3-4.8,6.4s.2,1.4.5,1.8c-2.9,7.5-5,12.9-6.5,16.3-2.2,5.1-3.4,6.3-4.4,6.3s-1.2-.5-1.2-2.2c0-5.1,4.2-15.2,7.6-20.7,0-.8-.7-1.6-2-1.6s-1.3.3-2,.9c-.4-1.3-1.8-2.7-4.4-2.7-7.5,0-16.3,12.5-16.3,23.2s2,7.2,5,7.2,4.6-1.6,7-5.4c0,3,1.4,5.4,4.3,5.4s5.9-2.7,8.6-8.7c1.9-4.2,3.9-9.4,6.8-16.8.5.2,1.2.2,1.9.2s1.6,0,3,0c-1.5,3.4-2.7,6.3-3.7,8.6-2.4,5.5-3.7,8.8-3.7,11.8s1.7,5.1,4.3,5.1,6.1-3.2,7.8-6.6c.6,4.2,3,6.6,6.5,6.6,6.9,0,13.5-9,18.8-23,.3,3.6,1.1,6.9,1.5,10.4-5.5,2.4-9.2,5.1-9.2,9.2s2.3,4.9,5.2,4.9c4.2,0,9-3.4,9-11.6s0-1.4,0-2c.8-.3,1.7-.6,2.5-.8,9.5-3,20.7-8.3,21.7-17.8.5-4.9-2.7-7.2-5.7-7.4ZM104.7,68.2c.9,0,1.4.5,1.4,2.1,0,4.1-2.9,10-8,10s-.5,0-.7,0c1.3-5.9,4.3-12,7.3-12ZM66.3,75.9c-.7,1.6-1.4,3.3-1.9,4.8-3.7,9.1-5.4,10.9-7,10.9s-1.7-.8-1.7-3.3c0-6.3,5.3-19.4,11-19.4s2.1.6,2.4,1.4c-.8,1.4-1.7,3.2-2.8,5.6ZM118.5,85.5c0,5.2-1.6,8.6-4.3,8.6s-2.2-.7-2.2-2.4c0-2.6,2.4-4.5,6.5-6.3h0Z"/>
  </g>
</svg>