<?xml version="1.0" encoding="UTF-8"?>
<svg id="Layer_1" data-name="Layer 1" xmlns="http://www.w3.org/2000/svg" version="1.1" viewBox="0 0 211 478">
  <defs>
    <style>
      .cls-1 {
        fill: #1d428a;
      }

      .cls-1, .cls-2, .cls-3 {
        stroke-width: 0px;
      }

      .cls-2 {
        fill: #c8102e;
      }

      .cls-3 {
        fill: #fff;
      }
    </style>
  </defs>
  <path class="cls-3" d="M88.2,317.8,158.6,12.2H52.4C26.5,12.2,5.5,33.3,5.5,59.1v359.4c0,25.9,21,47,46.9,47h106.1c25.9,0,47-21.1,47-47V59.1c0-25.9-21.1-46.9-46.9-46.9"/>
  <path class="cls-2" d="M132.2,95.3v1.5c3.3,1.9,5,3.4,8.2,5.5,8.7,5.4,19.3,15.1,18,48.5,2.4,7.3,3.5,21.6,5.7,26.2,4.5,8.9,7.5,14.8,8.8,23.2,0,0,1.3,13.1,3,14.1,8.9,2,6.4,2.9,7.7,4.4,1.4,1.8,6.6,1.7,6.6,6.5,1.8,2.4,3.1,4.9,4.1,7.5V59.1c0-19.8-16.1-35.9-35.8-35.9h-34.3c5.5,2,8.6,4.3,10.4,7.9,4.4.4,9.7,10.3,1.5,25,3.6,2.4.8,6-1.8,10.2-.8,1.3-1.6,3.7-4,3.6-3.1,6.6-6.9,12.9-9.7,13.3-.9,1.1-1.5,3.9-.2,5.2,4.2,1.9,9.3,4.4,11.8,6.8"/>
  <path class="cls-2" d="M194.4,256.3c-4.7,11.8-16.2,20.1-29.8,20.1s-32-14.3-32-32,10.4-27.7,24.4-31.1c-3.7-9.2-11.5-24.2-13.8-29.1-2.2-4.9-7.5-35.3-8.6-41.3-.3-1.3-13.8,7.9-13.8,8.4-.8.8-10.2,25.2-10.6,26.5-.2.8-.2,4.1-.2,4.1,0,0,4.6.6,7.3,8.6,2.6,8,10.6,37.3,10.6,37.3,0,0-2.2,2.2-2.3,2.1,10.1,33.8,6.6,48.4,11.1,58.3,5.7,14,7.2,12.1,12.1,23.9,3.5,8.6,7.4,42.2,8.7,43.7,5.5,6.9,8.4,12.3,8.4,16.2s-4.6,15.5-2.9,22.3c1,4,1.6,12.9,3.4,14.6,0,0,1.7,3.3.9,4.8-.2.5-.7,1.3-.5,1.9,3,10.6,12.7,28.7-3,38.2h.3c17.2-2.7,30.2-17.4,30.2-35.5v-162.2Z"/>
  <path class="cls-1" d="M154,411.6c-5.8-5.1-1.9-7.3-2.1-9.3-3.8-15.7-16.3-25.2-9.8-30.4-1.6-5.2-4.8-11.7-4.7-11.7-19.4-11.2-36-29.3-38.8-31.9-3.4-3.7-9.2-7.4-10.3-10.4-4.7-4.3-27.6-36.8-32.9-48.7l-9.3-1.3c-4.2-17.3-18.3-31.8-18.7-49.1-.1-6.5,3-20.6,4.1-23.4,1.1-2.8,6.5-7.5,6.5-7.5v-4.6c-20.3.6-14.4-1.5-17.9-9.4-2.5-5.5-.7-6.7.2-10.4,2.7-11.2,11.8-28.4,15.5-36.2,1.1-4,5.1-13.5,5.1-13.5,15.1-30.8,20.8-28.5,38.7-30.2l.9-1.3c18-.8,15-2.1,17.6-19.5-2.6,1.1-3.4-5.4-3.4-5.4-1.4-9.9,2.7-8,4.7-8.2.4-16.2,2.1-21.3,13.8-25.8h-60.6c-19.8,0-35.9,16.1-35.9,35.9v359.4c0,19.8,16.1,35.9,35.9,35.9h106.1c-12.1-6.6-5-19.1-4.6-42.8Z"/>
  <path class="cls-3" d="M72.5,431.8v-65.1h12.6c7.3,0,11.8,3.9,11.8,13v9.7c0,5.9-1.8,8.9-4.3,10.4,2.5,1.7,4.3,4.6,4.3,9.6v9.5c0,8.9-4.8,12.9-11.8,12.9h-12.6ZM81.2,403.6v20h3.3c3,0,3.8-1.6,3.8-4.6v-11c0-3.2-1-4.4-3.9-4.4h-3.2ZM81.2,375v21.5h3.2c3.1,0,3.9-1.1,3.9-4.6v-12.5c0-3-.9-4.4-3.8-4.4h-3.3ZM117.3,418.6h-7.8l-1.1,13.2h-8.7l7.8-65.1h12.4l7.6,65.1h-9.1l-1.1-13.2ZM113.4,374.1h-.4c-.5,7.8-1.6,21.6-2,26l-1,11.2h6.8l-1-11.2c-.4-4.5-1.6-18-2.3-26M46.7,431.8h-7.6v-65.1h12l9.6,53.3c-.8-12.8-1.9-28.2-1.9-41.3v-12h7.6v65.1h-11l-9.6-52.1c.6,12,.9,21.6.9,31.6v20.5Z"/>
</svg>