<svg xmlns="http://www.w3.org/2000/svg" xml:space="preserve" width="648" height="648" style="enable-background:new 0 0 648 648" viewBox="0 0 648 648"><path d="M78.925 357.216c0 4.608-.546 8.494-1.641 11.662-1.095 3.168-2.591 5.759-4.491 7.773-1.9 2.017-4.118 3.485-6.65 4.405-2.535.919-5.299 1.382-8.291 1.382-7.255 0-12.671-1.9-16.239-5.7-3.569-3.8-5.354-9.96-5.354-18.485V340.98h16.585v18.482c0 2.998.457 4.984 1.382 5.959.919.981 2.073 1.471 3.454 1.471 1.841 0 3.078-.836 3.714-2.508.632-1.665.95-3.886.95-6.65v-4.664c0-2.187-.173-4.115-.518-5.786-.345-1.669-.981-3.454-1.9-5.354-.922-1.9-2.159-4.059-3.714-6.477a725.288 725.288 0 0 0-6.132-9.33c-4.263-6.564-7.517-12.782-9.762-18.654-2.245-5.876-3.368-11.921-3.368-18.139v-5.009c0-9.213 1.814-16.067 5.441-20.557 3.627-4.491 8.898-6.736 15.807-6.736 2.992 0 5.756.318 8.291.95 2.532.635 4.75 1.931 6.65 3.886 1.9 1.962 3.368 4.725 4.405 8.291 1.036 3.572 1.554 8.294 1.554 14.167v15.545H62.862v-17.1c0-3.34-.346-5.873-1.036-7.6-.691-1.727-1.9-2.591-3.627-2.591-1.844 0-3.14.749-3.886 2.245-.752 1.496-1.123 4.146-1.123 7.945v3.282c0 2.649.197 5.095.605 7.341a32.794 32.794 0 0 0 1.986 6.736c.919 2.249 2.128 4.608 3.627 7.085a365.916 365.916 0 0 0 5.354 8.55l5.959 9.414c1.786 2.825 3.282 5.614 4.491 8.377a45.542 45.542 0 0 1 2.764 8.467c.632 2.878.95 6.046.95 9.5v5.698zM107.774 257.026c7.255 0 12.609 1.814 16.063 5.441 3.455 3.627 5.182 10.166 5.182 19.608v75.315c0 9.444-1.727 15.98-5.182 19.607-3.454 3.627-8.809 5.441-16.063 5.441-7.255 0-12.64-1.814-16.153-5.441s-5.268-10.163-5.268-19.607v-75.315c0-9.441 1.755-15.98 5.268-19.608 3.513-3.627 8.898-5.441 16.153-5.441zm4.664 23.494c0-3.109-.376-5.21-1.123-6.305-.749-1.095-1.931-1.641-3.541-1.641-1.613 0-2.825.546-3.627 1.641-.808 1.095-1.209 3.195-1.209 6.305v78.424c0 3.109.401 5.213 1.209 6.304.802 1.098 2.014 1.644 3.627 1.644 1.61 0 2.791-.546 3.541-1.644.746-1.092 1.123-3.195 1.123-6.304V280.52zM179.98 357.389c0 9.444-1.727 15.98-5.182 19.607s-8.809 5.441-16.063 5.441c-7.255 0-12.64-1.814-16.153-5.441-3.513-3.627-5.268-10.163-5.268-19.607v-75.315c0-9.441 1.755-15.98 5.268-19.608 3.513-3.627 8.898-5.441 16.153-5.441 7.255 0 12.609 1.814 16.063 5.441 3.454 3.627 5.182 10.166 5.182 19.608v27.639h-16.582V280.52c0-3.109-.376-5.21-1.123-6.305-.75-1.095-1.931-1.641-3.541-1.641-1.613 0-2.825.546-3.627 1.641-.808 1.095-1.209 3.195-1.209 6.305v78.424c0 3.109.401 5.213 1.209 6.304.802 1.098 2.014 1.644 3.627 1.644 1.61 0 2.791-.546 3.541-1.644.746-1.092 1.123-3.195 1.123-6.304v-27.121h16.582v25.566zM204.855 258.062v123.339H188.27V258.062h16.585zM237.504 357.044h-10.191l-1.382 24.357h-16.757l11.918-123.339h23.667l11.749 123.339H239.06l-1.556-24.357zm-9.328-15.373h8.464l-1.209-20.039c-.231-2.301-.463-5.728-.691-10.277-.231-4.549-.518-9.472-.864-14.771-.346-5.296-.663-10.564-.95-15.804-.29-5.24-.549-9.7-.777-13.389-.234 3.689-.494 8.18-.777 13.476a1365.77 1365.77 0 0 0-.777 15.891c-.234 5.299-.463 10.222-.691 14.771-.234 4.549-.407 7.918-.518 10.104l-1.21 20.038zM291.052 381.401h-30.23V258.062h16.585v107.793h13.645v15.546zM324.906 333.895v25.048c0 3.109.401 5.213 1.209 6.304.802 1.098 2.011 1.644 3.627 1.644 1.61 0 2.791-.546 3.541-1.644.746-1.092 1.123-3.195 1.123-6.304V258.062h16.582v99.327c0 9.444-1.727 15.98-5.182 19.607-3.454 3.627-8.809 5.441-16.063 5.441-7.372 0-12.785-1.814-16.239-5.441-3.455-3.627-5.182-10.163-5.182-19.607v-23.494h16.584zM401.947 258.062v99.327c0 9.444-1.727 15.98-5.182 19.607s-8.809 5.441-16.063 5.441c-7.255 0-12.64-1.814-16.155-5.441-3.513-3.627-5.268-10.163-5.268-19.607v-99.327h16.586v100.881c0 3.109.401 5.213 1.209 6.304.802 1.098 2.011 1.644 3.627 1.644 1.61 0 2.788-.546 3.541-1.644.746-1.092 1.123-3.195 1.123-6.304V258.062h16.582zM451.87 357.216c0 4.608-.549 8.494-1.641 11.662-1.098 3.168-2.591 5.759-4.491 7.773-1.9 2.017-4.121 3.485-6.65 4.405-2.535.919-5.299 1.382-8.291 1.382-7.255 0-12.671-1.9-16.243-5.7-3.565-3.8-5.354-9.96-5.354-18.485V340.98h16.588v18.482c0 2.998.457 4.984 1.382 5.959.919.981 2.073 1.471 3.454 1.471 1.838 0 3.078-.836 3.714-2.508.629-1.665.95-3.886.95-6.65v-4.664c0-2.187-.173-4.115-.518-5.786-.345-1.669-.981-3.454-1.9-5.354-.925-1.9-2.159-4.059-3.714-6.477a725.288 725.288 0 0 0-6.132-9.33c-4.263-6.564-7.52-12.782-9.765-18.654-2.245-5.876-3.368-11.921-3.368-18.139v-5.009c0-9.213 1.813-16.067 5.441-20.557 3.627-4.491 8.902-6.736 15.811-6.736 2.992 0 5.755.318 8.291.95 2.529.635 4.75 1.931 6.65 3.886 1.9 1.962 3.368 4.725 4.405 8.291 1.036 3.572 1.554 8.294 1.554 14.167v15.545h-16.236v-17.1c0-3.34-.346-5.873-1.036-7.6-.691-1.727-1.9-2.591-3.627-2.591-1.844 0-3.14.749-3.886 2.245-.753 1.496-1.123 4.146-1.123 7.945v3.282c0 2.649.197 5.095.605 7.341a32.794 32.794 0 0 0 1.986 6.736c.919 2.249 2.128 4.608 3.627 7.085a353.269 353.269 0 0 0 5.355 8.55c2.184 3.454 4.17 6.594 5.959 9.414 1.783 2.825 3.282 5.614 4.491 8.377a45.765 45.765 0 0 1 2.764 8.467c.629 2.878.95 6.046.95 9.5v5.698zM456.361 258.062h42.318v15.548h-12.954V381.4h-16.582V273.61h-12.782v-15.548zM520.622 258.062v123.339h-16.588V258.062h16.588zM571.576 357.389c0 9.444-1.727 15.98-5.182 19.607-3.455 3.627-8.809 5.441-16.064 5.441-7.254 0-12.64-1.814-16.15-5.441-3.516-3.627-5.268-10.163-5.268-19.607v-75.315c0-9.441 1.752-15.98 5.268-19.608 3.51-3.627 8.895-5.441 16.15-5.441 7.255 0 12.609 1.814 16.064 5.441 3.454 3.627 5.182 10.166 5.182 19.608v27.639h-16.582V280.52c0-3.109-.376-5.21-1.123-6.305-.746-1.095-1.931-1.641-3.541-1.641-1.61 0-2.825.546-3.627 1.641-.808 1.095-1.209 3.195-1.209 6.305v78.424c0 3.109.401 5.213 1.209 6.304.802 1.098 2.017 1.644 3.627 1.644 1.61 0 2.794-.546 3.541-1.644.746-1.092 1.123-3.195 1.123-6.304v-27.121h16.582v25.566zM612 381.401h-32.133V258.062H612v15.548h-15.545v38.003h13.473v13.473h-13.473v40.77H612v15.545z"/><g><path d="M74.341 483.919c0 8.487-1.553 14.358-4.657 17.619-3.107 3.26-7.917 4.892-14.437 4.892s-11.359-1.632-14.515-4.892c-3.157-3.26-4.731-9.132-4.731-17.619v-67.678c0-8.483 1.575-14.358 4.731-17.615 3.157-3.26 7.995-4.892 14.515-4.892 6.52 0 11.33 1.632 14.437 4.892 3.103 3.257 4.657 9.132 4.657 17.615v24.837H59.437v-26.234c0-2.793-.335-4.682-1.008-5.665-.673-.983-1.735-1.475-3.182-1.475-1.45 0-2.537.492-3.26 1.475-.727.983-1.087 2.872-1.087 5.665v70.474c0 2.793.36 4.682 1.087 5.665.723.983 1.81 1.475 3.26 1.475 1.447 0 2.508-.492 3.182-1.475.674-.984 1.008-2.872 1.008-5.665v-24.37h14.904v22.971zM102.744 393.734c6.52 0 11.33 1.632 14.437 4.892 3.103 3.257 4.657 9.132 4.657 17.615v67.678c0 8.487-1.554 14.358-4.657 17.619-3.107 3.26-7.917 4.892-14.437 4.892s-11.359-1.632-14.515-4.892c-3.157-3.26-4.732-9.132-4.732-17.619v-67.678c0-8.483 1.575-14.358 4.732-17.615 3.156-3.26 7.995-4.892 14.515-4.892zm4.19 21.111c0-2.793-.335-4.682-1.008-5.665-.673-.983-1.735-1.475-3.182-1.475-1.45 0-2.537.492-3.26 1.475-.727.983-1.087 2.872-1.087 5.665v70.474c0 2.793.36 4.682 1.087 5.665.723.983 1.81 1.475 3.26 1.475 1.447 0 2.508-.492 3.182-1.475.673-.984 1.008-2.872 1.008-5.665v-70.474zM152.885 483.609h-9.16l-1.24 21.887h-15.057l10.71-110.828h21.263l10.557 110.828h-15.677l-1.396-21.887zm-8.384-13.814h7.607l-1.087-18.007c-.21-2.07-.417-5.145-.624-9.235a923.613 923.613 0 0 0-.773-13.272c-.313-4.76-.599-9.492-.855-14.202-.26-4.71-.492-8.718-.698-12.032-.21 3.314-.442 7.35-.698 12.107-.26 4.763-.492 9.523-.698 14.284-.21 4.76-.417 9.182-.62 13.268l-.467 9.082-1.087 18.007zM202.709 505.496h-27.164V394.668h14.9v96.858h12.264v13.97zM223.972 394.668v110.828h-14.9V394.668h14.9zM230.489 394.668h38.03v13.97h-11.644v96.858h-14.9v-96.858h-11.487v-13.97zM289.94 394.668v110.828h-14.9V394.668h14.9zM318.347 393.734c6.52 0 11.33 1.632 14.437 4.892 3.103 3.257 4.657 9.132 4.657 17.615v67.678c0 8.487-1.553 14.358-4.657 17.619-3.107 3.26-7.917 4.892-14.437 4.892s-11.358-1.632-14.515-4.892c-3.157-3.26-4.732-9.132-4.732-17.619v-67.678c0-8.483 1.575-14.358 4.732-17.615 3.156-3.26 7.995-4.892 14.515-4.892zm4.19 21.111c0-2.793-.335-4.682-1.008-5.665-.673-.983-1.735-1.475-3.182-1.475-1.45 0-2.537.492-3.26 1.475-.727.983-1.087 2.872-1.087 5.665v70.474c0 2.793.36 4.682 1.087 5.665.723.983 1.81 1.475 3.26 1.475 1.447 0 2.508-.492 3.182-1.475.674-.984 1.008-2.872 1.008-5.665v-70.474zM359.634 505.496h-13.037V394.668h20.177l13.507 92.358a867.756 867.756 0 0 1-1.553-18.395c-.52-6.88-1.008-13.813-1.475-20.8-.467-6.983-.855-13.735-1.165-20.255-.31-6.52-.463-12.107-.463-16.764v-16.144h13.037v110.828h-18.47l-12.42-88.478a644 644 0 0 1 .777 15.367c.207 5.28.388 10.429.545 15.445.153 5.02.281 9.755.388 14.205.1 4.45.153 8.33.153 11.64v31.821z"/></g><g><path d="M43.256 244.815h-7.168V142.431h10.897l12.905 95.215a331.986 331.986 0 0 1-.716-12.19l-.574-13.263a672.177 672.177 0 0 1-.432-11.903c-.096-3.584-.142-6.286-.142-8.103V142.43h7.168v102.383H54.298l-12.905-95.212c.287 3.633.524 7.695.716 12.189.191 4.494.382 8.914.574 13.263.191 4.349.333 8.316.432 11.9.092 3.587.142 6.289.142 8.103v49.759zM91.434 219.865H80.108l-2.727 24.95h-7.026l11.187-102.383h10.179l9.608 102.383h-7.455l-2.44-24.95zm-10.61-7.6h9.895l-1.434-15.632c-.191-1.814-.429-4.466-.715-7.958a763.342 763.342 0 0 1-.861-11.687c-.287-4.3-.574-8.744-.86-13.334-.287-4.59-.574-8.84-.861-12.763-.287 3.729-.574 7.745-.86 12.045-.287 4.303-.574 8.535-.861 12.692-.287 4.158-.574 8.078-.861 11.758-.287 3.68-.574 6.81-.861 9.392l-1.721 15.487zM118.821 150.031v94.783h-7.313v-94.783H101.04v-7.6h28.25v7.6h-10.469zM142.052 142.431v102.383h-7.313V142.431h7.313zM164.275 141.571c4.587 0 7.979 1.413 10.179 4.232 2.199 2.819 3.3 7.72 3.3 14.697v66.247c0 6.98-1.172 11.881-3.513 14.697-2.344 2.822-5.666 4.232-9.966 4.232-4.59 0-7.982-1.41-10.182-4.232-2.199-2.816-3.297-7.717-3.297-14.697V160.5c0-6.977 1.169-11.878 3.513-14.697 2.342-2.82 5.664-4.232 9.966-4.232zm6.166 17.353c0-3.633-.407-6.261-1.218-7.887-.814-1.625-2.464-2.44-4.947-2.44-2.202 0-3.778.814-4.731 2.44-.959 1.625-1.434 4.253-1.434 7.887v69.402c0 3.633.404 6.261 1.218 7.887.811 1.626 2.458 2.437 4.947 2.437 2.196 0 3.775-.811 4.731-2.437.953-1.626 1.434-4.253 1.434-7.887v-69.402zM193.67 244.815h-7.168V142.431h10.897l12.905 95.215a334.22 334.22 0 0 1-.716-12.19l-.574-13.263a672.177 672.177 0 0 1-.432-11.903c-.096-3.584-.142-6.286-.142-8.103V142.43h7.168v102.383h-10.897l-12.905-95.212c.287 3.633.524 7.695.716 12.189.191 4.494.382 8.914.574 13.263.191 4.349.333 8.316.432 11.9.092 3.587.142 6.289.142 8.103v49.759zM241.845 219.865h-11.326l-2.727 24.95h-7.026l11.187-102.383h10.178l9.608 102.383h-7.455l-2.439-24.95zm-10.611-7.6h9.895l-1.434-15.632c-.191-1.814-.429-4.466-.716-7.958a763.342 763.342 0 0 1-.861-11.687c-.287-4.3-.574-8.744-.861-13.334-.287-4.59-.574-8.84-.861-12.763-.287 3.729-.574 7.745-.861 12.045-.287 4.303-.574 8.535-.861 12.692-.287 4.158-.574 8.078-.861 11.758-.287 3.68-.574 6.81-.861 9.392l-1.718 15.487zM279.271 244.815h-22.368V142.431h7.313v95.215h15.055v7.169zM324.867 220.581c0 5.641-.429 10.089-1.289 13.337-.861 3.251-2.103 5.688-3.729 7.313-1.625 1.626-3.609 2.631-5.95 3.01-2.344.382-5.043.574-8.103.574h-7.6V142.431h7.6c2.961 0 5.592.265 7.887.79 2.295.527 4.229 1.601 5.808 3.226 1.576 1.628 2.77 4.016 3.584 7.171.811 3.152 1.218 7.362 1.218 12.618v5.734c0 6.215-.645 10.971-1.934 14.268-1.292 3.297-2.94 5.712-4.947 7.242 2.196 1.339 3.991 3.609 5.376 6.81 1.385 3.205 2.079 7.958 2.079 14.268v6.023zm-19.644-70.692v40.723h2.008c1.339 0 2.603-.238 3.8-.719 1.194-.475 2.27-1.406 3.226-2.794.953-1.385 1.696-3.297 2.224-5.737.524-2.437.787-5.614.787-9.534v-5.305c0-3.251-.213-5.953-.645-8.103-.429-2.15-1.077-3.871-1.937-5.163-.857-1.289-1.912-2.171-3.152-2.653-1.243-.475-2.631-.716-4.158-.716h-2.153zm0 47.892v40.008h3.01c1.339 0 2.582-.167 3.729-.503 1.147-.333 2.153-1.098 3.01-2.295.861-1.194 1.555-2.939 2.082-5.231.524-2.295.786-5.401.786-9.321v-5.45c0-3.917-.262-7.026-.786-9.321-.527-2.292-1.221-4.013-2.082-5.16-.857-1.147-1.863-1.888-3.01-2.224-1.148-.333-2.391-.503-3.729-.503h-3.01zM351.251 219.865h-11.326l-2.727 24.95h-7.026l11.187-102.383h10.178l9.608 102.383h-7.455l-2.439-24.95zm-10.61-7.6h9.895l-1.434-15.632c-.191-1.814-.429-4.466-.716-7.958a763.342 763.342 0 0 1-.861-11.687c-.287-4.3-.574-8.744-.861-13.334-.287-4.59-.574-8.84-.861-12.763-.287 3.729-.574 7.745-.861 12.045-.287 4.303-.574 8.535-.861 12.692-.287 4.158-.574 8.078-.861 11.758s-.574 6.81-.861 9.392l-1.718 15.487zM393.267 226.746c0 6.98-1.147 11.881-3.442 14.697-2.295 2.822-5.592 4.232-9.895 4.232-4.586 0-8.007-1.41-10.253-4.232-2.245-2.816-3.368-7.717-3.368-14.697V211.26h7.313v17.066c0 3.633.429 6.261 1.289 7.887.861 1.626 2.532 2.437 5.018 2.437 2.199 0 3.751-.811 4.66-2.437.907-1.626 1.363-4.253 1.363-7.887v-5.879c0-2.008-.071-3.849-.216-5.521-.142-1.672-.527-3.417-1.147-5.234-.623-1.814-1.554-3.8-2.794-5.95-1.246-2.153-2.918-4.71-5.021-7.674a153.445 153.445 0 0 1-4.516-6.594 36.91 36.91 0 0 1-3.226-6.237 38.425 38.425 0 0 1-2.008-6.884c-.478-2.437-.716-5.327-.716-8.676V160.5c0-6.977 1.194-11.878 3.584-14.697 2.387-2.819 5.737-4.232 10.037-4.232 4.59 0 7.958 1.413 10.111 4.232 2.15 2.819 3.226 7.72 3.226 14.697v15.345h-7.313v-16.921c0-3.633-.383-6.261-1.148-7.887-.768-1.625-2.39-2.44-4.876-2.44-2.199 0-3.8.814-4.802 2.44-1.005 1.625-1.505 4.253-1.505 7.887v9.321c0 2.677.117 4.969.358 6.881a22.594 22.594 0 0 0 1.363 5.45c.666 1.721 1.527 3.439 2.579 5.16 1.052 1.721 2.39 3.729 4.016 6.024 2.295 3.251 4.182 6.021 5.663 8.316 1.484 2.295 2.628 4.469 3.442 6.526a29.564 29.564 0 0 1 1.721 6.308c.333 2.15.503 4.71.503 7.671v6.165zM408.609 195.918v48.897h-7.313V142.431h7.313v46.318h1.147l10.752-46.318h7.458l-11.903 48.181 12.044 54.202h-7.6l-10.61-48.897h-1.288zM455.495 244.815h-22.226V142.431h22.226v7.171h-14.913v39.147h13.047v7.168h-13.047v41.729h14.913v7.169zM478.005 150.031v94.783h-7.313v-94.783h-10.468v-7.6h28.25v7.6h-10.469zM520.736 220.581c0 5.641-.429 10.089-1.289 13.337-.86 3.251-2.103 5.688-3.729 7.313-1.626 1.626-3.609 2.631-5.95 3.01-2.344.382-5.043.574-8.103.574h-7.6V142.431h7.6c2.961 0 5.592.265 7.887.79 2.295.527 4.229 1.601 5.808 3.226 1.576 1.628 2.77 4.016 3.584 7.171.811 3.152 1.218 7.362 1.218 12.618v5.734c0 6.215-.645 10.971-1.934 14.268-1.292 3.297-2.939 5.712-4.947 7.242 2.196 1.339 3.991 3.609 5.376 6.81 1.385 3.205 2.079 7.958 2.079 14.268v6.023zm-19.645-70.692v40.723h2.008c1.339 0 2.603-.238 3.8-.719 1.194-.475 2.27-1.406 3.226-2.794.953-1.385 1.696-3.297 2.224-5.737.524-2.437.787-5.614.787-9.534v-5.305c0-3.251-.213-5.953-.645-8.103-.429-2.15-1.077-3.871-1.937-5.163-.857-1.289-1.912-2.171-3.152-2.653-1.243-.475-2.631-.716-4.158-.716h-2.153zm0 47.892v40.008h3.01c1.339 0 2.582-.167 3.729-.503 1.147-.333 2.153-1.098 3.01-2.295.861-1.194 1.554-2.939 2.082-5.231.524-2.295.786-5.401.786-9.321v-5.45c0-3.917-.262-7.026-.786-9.321-.528-2.292-1.221-4.013-2.082-5.16-.858-1.147-1.863-1.888-3.01-2.224-1.147-.333-2.39-.503-3.729-.503h-3.01zM547.117 219.865h-11.326l-2.727 24.95h-7.026l11.187-102.383h10.178l9.608 102.383h-7.455l-2.439-24.95zm-10.611-7.6h9.895l-1.434-15.632c-.191-1.814-.429-4.466-.716-7.958a751.667 751.667 0 0 1-.86-11.687c-.287-4.3-.574-8.744-.86-13.334-.287-4.59-.574-8.84-.861-12.763-.287 3.729-.574 7.745-.861 12.045-.287 4.303-.574 8.535-.861 12.692-.287 4.158-.574 8.078-.86 11.758-.287 3.68-.574 6.81-.861 9.392l-1.721 15.487zM584.543 244.815h-22.368V142.431h7.313v95.215h15.055v7.169zM611.932 244.815h-22.368V142.431h7.313v95.215h15.055v7.169z"/></g></svg>