<?xml version="1.0" encoding="UTF-8"?>
<svg id="LOGOS" xmlns="http://www.w3.org/2000/svg" version="1.1" viewBox="0 0 150 150">
  <defs>
    <style>
      .cls-1 {
        fill: #1d428a;
      }

      .cls-1, .cls-2, .cls-3 {
        stroke-width: 0px;
      }

      .cls-2 {
        fill: #c8102e;
      }

      .cls-3 {
        fill: #fff;
      }
    </style>
  </defs>
  <g>
    <path class="cls-1" d="M28.7,76.4v15h-4.4v-32.8h8.5v4.1h-4.1v10.1h3.6v3.6h-3.6Z"/>
    <path class="cls-1" d="M45.2,65v20c0,5-1.8,6.7-5.6,6.7s-5.7-1.7-5.7-6.7v-20c0-5,1.8-6.7,5.7-6.7s5.6,1.7,5.6,6.7ZM40.8,64.6c0-1.7-.4-2.1-1.2-2.1s-1.3.5-1.3,2.1v20.8c0,1.7.4,2.1,1.3,2.1s1.2-.5,1.2-2.1v-20.8Z"/>
    <path class="cls-1" d="M58.8,58.6v26.4c0,5-1.8,6.7-5.6,6.7s-5.7-1.7-5.7-6.7v-26.4h4.4v26.8c0,1.7.4,2.1,1.3,2.1s1.2-.5,1.2-2.1v-26.8s4.4,0,4.4,0Z"/>
    <path class="cls-1" d="M64.9,91.4h-3.9v-32.8h6l4,27.3c-.6-6.4-1.4-17-1.4-22.5v-4.8h3.9v32.8h-5.5l-3.7-26.2c.3,5.9.5,12.8.5,16.7v9.4h.1Z"/>
    <path class="cls-1" d="M75.8,91.4v-32.8h4.6c4.5,0,6.7,2.5,6.7,7.4v17.8c0,5.3-2.6,7.6-6.7,7.6,0,0-4.6,0-4.6,0ZM80.2,62.7v24.5h.8c1.4,0,1.7-1.3,1.7-3.4v-17.8c0-2.1-.3-3.3-1.7-3.3h-.8Z"/>
    <path class="cls-1" d="M95.4,84.9h-2.7l-.4,6.5h-4.5l3.2-32.8h6.3l3.1,32.8h-4.6l-.4-6.5ZM92.9,80.8h2.2l-.3-5.3c-.2-2.5-.6-10.5-.9-14.4-.3,3.9-.6,12.1-.7,14.4,0,0-.3,5.3-.3,5.3Z"/>
    <path class="cls-1" d="M99.7,58.6h11.2v4.1h-3.4v28.6h-4.4v-28.6h-3.4v-4.1h0Z"/>
    <path class="cls-1" d="M116.7,58.6v32.8h-4.4v-32.8h4.4Z"/>
    <path class="cls-1" d="M130.4,65v20c0,5-1.8,6.7-5.6,6.7s-5.7-1.7-5.7-6.7v-20c0-5,1.8-6.7,5.7-6.7s5.6,1.7,5.6,6.7ZM126,64.6c0-1.7-.4-2.1-1.2-2.1s-1.3.5-1.3,2.1v20.8c0,1.7.4,2.1,1.3,2.1s1.2-.5,1.2-2.1v-20.8Z"/>
    <path class="cls-1" d="M136.4,91.4h-3.9v-32.8h6l4,27.3c-.6-6.4-1.4-17-1.4-22.5v-4.8h3.9v32.8h-5.5l-3.7-26.2c.3,5.9.5,12.8.5,16.7v9.4h0Z"/>
  </g>
  <g>
    <path class="cls-3" d="M16.6,57.8h-8c-2,0-3.6,1.6-3.6,3.6v27.3c0,2,1.6,3.6,3.6,3.6h8.1c2,0,3.6-1.6,3.6-3.6v-27.3c0-2-1.6-3.6-3.6-3.6"/>
    <path class="cls-2" d="M14.6,64.1h0c.2.3.4.4.6.5.7.4,1.5,1.1,1.4,3.7.2.6.3,1.6.4,2,.3.7.6,1.1.7,1.8,0,0,0,1,.2,1.1.7.2.5.2.6.3s.5,0,.5.5l.3.6v-13.2c0-1.5-1.2-2.7-2.7-2.7h-2.6c.4.1.7.3.8.6.3,0,.7.8.1,1.9.3.2,0,.5-.1.8,0,.1-.1.3-.3.3-.2.5-.5,1-.7,1,0,0-.1.3,0,.4.3.1.7.3.9.5"/>
    <path class="cls-2" d="M19.3,76.3c-.4.9-1.2,1.5-2.3,1.5s-2.4-1.1-2.4-2.4.8-2.1,1.9-2.4c-.3-.7-.9-1.8-1-2.2-.2-.4-.6-2.7-.7-3.1l-1,.6s-.8,1.9-.8,2v.3s.4,0,.6.7c.2.6.8,2.8.8,2.8l-.2.2c.8,2.6.5,3.7.8,4.4.4,1.1.5.9.9,1.8.3.6.6,3.2.7,3.3.4.5.6.9.6,1.2s-.4,1.2-.2,1.7c0,.3.1,1,.3,1.1,0,0,.1.3,0,.4h0c.2.9,1,2.3-.2,3h0c1.3-.2,2.3-1.3,2.3-2.7v-12.3h-.1Z"/>
    <path class="cls-1" d="M16.3,88.1c-.4-.4-.1-.6-.2-.7-.3-1.2-1.2-1.9-.7-2.3-.1-.4-.4-.9-.4-.9-1.5-.8-2.7-2.2-2.9-2.4-.3-.3-.7-.6-.8-.8-.4-.3-2.1-2.8-2.5-3.7h-.7c-.3-1.4-1.4-2.5-1.4-3.8s.2-1.6.3-1.8c0-.2.5-.6.5-.6v-.4c-1.5,0-1.1-.1-1.4-.7-.2-.4,0-.5,0-.8.2-.8.9-2.2,1.2-2.8,0-.3.4-1,.4-1,1.1-2.3,1.6-2.2,2.9-2.3h0c1.4-.2,1.1-.3,1.3-1.6-.2,0-.3-.4-.3-.4-.1-.7.2-.6.4-.6,0-1.2.2-1.6,1-2h-4.6c-1.5,0-2.7,1.2-2.7,2.7v27.3c0,1.5,1.2,2.7,2.7,2.7h8.1c-.9-.5-.4-1.4-.3-3.3v.2Z"/>
    <path class="cls-3" d="M10.1,89.7v-4.9h1c.6,0,.9.3.9,1v.7c0,.4-.1.7-.3.8.2,0,.3.4.3.7v.7c0,.7-.4,1-.9,1h-1ZM10.7,87.5v1.5h.3c.2,0,.3,0,.3-.4v-.8c0-.2,0-.3-.3-.3h-.3ZM10.7,85.3v1.6h.2c.2,0,.3,0,.3-.4v-.9c0-.2,0-.3-.3-.3h-.3.1ZM13.5,88.7h-.6v1h-.7l.6-4.9h.9l.6,4.9h-.7v-1h-.1ZM13.2,85.3h0c0,.6-.1,1.6-.2,2v.9h.4v-.9c-.1-.3-.2-1.4-.3-2M8.1,89.7h-.6v-4.9h.9l.7,4c0-1,0-2.1,0-3.1v-.9h.6v4.9h-.8l-.7-4v4Z"/>
  </g>
</svg>